# xmcd CD database file
#
# Track frame offsets:
#	150
#	39589
#	71762
#	82910
#	104959
#	149343
#	192053
#	205779
#	227075
#	253114
#
# Disc length: 3752 seconds
#
# Revision: 1
# Processed by: cddbd v1.5PL3 Copyright (c) Steve Scherf et al.
# Submitted via: CDex 1.51
#
DISCID=8f0ea60a
DTITLE=Diverse - Jazzfestival Vol.8
DYEAR=2002
DGENRE=Jazz
TTITLE0=Windows
TTITLE1=Memphis Underground
TTITLE2=Chickens
TTITLE3=Grow Your Own
TTITLE4=Stratus
TTITLE5=Hand Made
TTITLE6=Beneath The Earth
TTITLE7=Christo Redentor
TTITLE8=Eccentric Molecules
TTITLE9=Birdland
EXTD=YEAR: 2002
EXTT0=
EXTT1=
EXTT2=
EXTT3=
EXTT4=
EXTT5=
EXTT6=
EXTT7=
EXTT8=
EXTT9=
PLAYORDER=
